<?xml version="1.0" encoding="utf-8"?>
<!-- Generator: Adobe Illustrator 27.5.0, SVG Export Plug-In . SVG Version: 6.00 Build 0)  -->
<svg version="1.1" id="Layer_1" xmlns="http://www.w3.org/2000/svg" xmlns:xlink="http://www.w3.org/1999/xlink" x="0px" y="0px"
	 viewBox="0 0 240.931 275.075" style="enable-background:new 0 0 240.931 275.075;" xml:space="preserve">
<g>
	<g>
		<path style="fill:#FFFFFF;" d="M187.477,137.416c-0.16,0.994-0.318,2-0.473,3.015c-1.55-1.291-3.229-2.415-4.781-3.456
			c-0.42-0.28-0.833-0.557-1.233-0.831c0.925-3.741,1.561-7.346,1.9-10.777c1.986-0.681,3.89-1.401,5.704-2.159
			C188.684,127.484,188.311,132.237,187.477,137.416z M148.34,182.969c-0.392,0.645-1.078,1.314-1.862,2.012
			c-0.008-0.023-0.015-0.045-0.02-0.067c-0.117-0.382-0.249-0.763-0.399-1.145c0.256-1.372,0.538-2.776,0.846-4.219
			c0.767,0.729,1.854,1.784,1.979,2.18C148.882,181.732,148.862,182.11,148.34,182.969z M229.079,201.895
			c-8.922-1.007-15.228-4.089-19.274-9.42c-9.07-11.952-6.912-34.123-4.018-52.102c1.716-10.653,1.837-20.117,0.363-28.183
			c5.422-5.375,8.168-11.52,8.168-18.301c0-13.206-10.925-34.406-26.567-51.553C176.49,29.995,153.118,9.289,123.088,9.289
			c-30.031,0-53.404,20.706-64.664,33.048C42.781,59.483,31.857,80.684,31.857,93.89c0,6.539,2.563,12.498,7.626,17.746
			c-0.857,7.232-0.554,15.475,0.908,24.546c2.893,17.978,5.05,40.148-4.017,52.107c-4.045,5.329-10.351,8.41-19.28,9.419
			c-5.081,0.574-8.747,5.178-8.173,10.267c0.538,4.688,4.498,8.224,9.211,8.224c0.348,0,0.687-0.017,1.049-0.057
			c14.038-1.588,24.793-7.188,31.965-16.642c13.33-17.561,11.041-44.639,7.557-66.268c-0.568-3.528-0.924-6.871-1.063-9.999
			c1.729,0.72,3.538,1.407,5.425,2.059c0.057,6.245,1.206,13.134,3.429,20.554c-0.847,1.697-1.264,3.49-1.243,5.356
			c0.059,5.46,2.558,9.613,7.436,12.374c6.316,19.135,7.289,32.831,2.979,41.83c-2.886,6.032-8.443,10.32-16.988,13.11
			c-2.354,0.768-4.268,2.407-5.389,4.617c-1.12,2.209-1.313,4.723-0.544,7.071c1.247,3.83,4.789,6.403,8.813,6.403
			c0.979,0,1.95-0.156,2.879-0.462c13.433-4.384,22.841-12.033,27.964-22.735c2.27-4.745,3.673-10.133,4.189-16.067
			c1.094-0.054,2.161-0.166,3.133-0.267c1.056-0.111,2.054-0.216,2.796-0.216c0.294,0,0.454,0.018,0.521,0.027
			c0.087,0.012,0.165,0.025,0.237,0.038c-0.12,0.906-0.531,2.337-0.801,3.277c-0.265,0.916-0.537,1.864-0.75,2.823
			c-0.919,4.147,0.373,7.666,3.842,10.49c-0.057,16.463-6.167,29.912-18.632,41.048c-1.872,1.669-2.98,3.967-3.121,6.472
			c-0.142,2.505,0.702,4.913,2.366,6.771c1.777,1.996,4.33,3.141,7.006,3.141c2.308,0,4.526-0.848,6.249-2.387
			c10.987-9.817,18.235-20.832,21.966-33.447c0.753,0.939,1.44,1.886,2.011,2.882c0.977,1.703,0.736,3.187-0.146,6.692
			c-0.252,1.009-1.021,4.078,0.913,6.555c1.08,1.383,2.737,2.177,4.544,2.177c4.656,0,9.721-5.693,9.768-5.746
			c0.067-0.077,0.135-0.155,0.2-0.233c4.191,5.716,9.386,10.986,15.521,15.739c1.813,1.404,4.155,2.104,6.399,1.944
			c2.675-0.188,5.144-1.511,6.761-3.611c1.538-1.979,2.211-4.438,1.898-6.923c-0.314-2.489-1.579-4.708-3.564-6.247
			c-10.009-7.752-16.428-16.897-19.503-28.018c2.012-0.095,3.96-0.514,4.771-0.707c3.08-0.735,5.699-2.032,7.676-3.766
			c5.429,6.773,13.18,11.83,23.138,15.076c0.937,0.313,1.913,0.471,2.904,0.471c4.026,0,7.57-2.574,8.816-6.398
			c0.77-2.354,0.576-4.867-0.545-7.077c-1.122-2.21-3.037-3.85-5.39-4.616c-8.546-2.791-14.104-7.079-16.989-13.113
			c-0.631-1.316-1.152-2.752-1.558-4.292c2.277-1.434,3.903-3.574,4.567-6.134c0.938-3.612-0.283-7.422-3.269-10.195
			c-0.568-0.525-1.145-1-1.7-1.438c0.429-2.938,1.063-6.089,1.898-9.415c0.633-0.193,1.3-0.392,1.984-0.595
			c3.755-1.112,8.407-2.492,12.309-4.765c-0.338,14.72,1.9,29.369,10.21,40.324c7.175,9.454,17.931,15.054,31.969,16.645
			c0.038,0.005,0.075,0.009,0.111,0.012c0.314,0.028,0.628,0.042,0.941,0.042c4.711,0,8.671-3.535,9.211-8.237
			C237.825,207.069,234.157,202.472,229.079,201.895z M119.34,156.118c-0.15-1.687-0.659-3.463-1.662-5.31
			C120.676,152.977,120.598,153.839,119.34,156.118z M122.275,191.984c0.021-0.664-0.011-1.321-0.095-1.969
			c-0.011-0.089-0.024-0.178-0.037-0.266c0.004,0.003,0.006,0.008,0.009,0.012C122.614,190.399,122.917,190.819,122.275,191.984z"/>
		<path style="fill:#F0F0F0;" d="M186.999,136.946c-0.16,0.993-0.318,2-0.472,3.015c-1.55-1.291-3.23-2.415-4.782-3.456
			c-0.42-0.28-0.832-0.557-1.233-0.831c0.925-3.741,1.561-7.346,1.9-10.778c1.986-0.679,3.89-1.4,5.704-2.158
			C188.207,127.014,187.833,131.768,186.999,136.946z M147.862,182.499c-0.392,0.646-1.078,1.314-1.862,2.011
			c-0.008-0.022-0.014-0.044-0.02-0.065c-0.117-0.383-0.248-0.764-0.399-1.146c0.256-1.372,0.538-2.776,0.847-4.22
			c0.766,0.729,1.854,1.785,1.977,2.18C148.404,181.263,148.386,181.641,147.862,182.499z M228.602,201.425
			c-8.922-1.007-15.228-4.089-19.274-9.42c-9.07-11.952-6.912-34.122-4.018-52.102c1.716-10.653,1.838-20.116,0.363-28.183
			c5.423-5.374,8.169-11.52,8.169-18.301c0-13.206-10.925-34.406-26.568-51.552c-11.26-12.343-34.633-33.049-64.663-33.049
			c-30.031,0-53.404,20.706-64.664,33.049C42.304,59.014,31.379,80.214,31.379,93.42c0,6.539,2.564,12.498,7.627,17.746
			c-0.858,7.231-0.554,15.475,0.907,24.546c2.893,17.978,5.05,40.146-4.018,52.107c-4.045,5.328-10.351,8.409-19.28,9.418
			c-5.081,0.575-8.747,5.177-8.172,10.267c0.537,4.688,4.497,8.224,9.211,8.224c0.347,0,0.686-0.017,1.048-0.056
			c14.043-1.548,24.794-7.188,31.965-16.642c13.33-17.561,11.041-44.64,7.557-66.27c-0.568-3.527-0.924-6.87-1.063-9.998
			c1.73,0.72,3.54,1.406,5.426,2.059c0.056,6.245,1.205,13.134,3.428,20.554c-0.847,1.697-1.264,3.49-1.243,5.356
			c0.059,5.46,2.558,9.613,7.436,12.373c6.316,19.135,7.289,32.833,2.979,41.831c-2.886,6.032-8.442,10.32-16.988,13.109
			c-2.354,0.768-4.268,2.409-5.389,4.619c-1.12,2.209-1.313,4.722-0.544,7.07c1.247,3.83,4.789,6.402,8.813,6.402
			c0.979,0,1.949-0.156,2.878-0.461c13.433-4.384,22.841-12.032,27.964-22.734c2.27-4.747,3.673-10.134,4.189-16.067
			c1.094-0.055,2.161-0.166,3.134-0.269c1.055-0.11,2.053-0.215,2.795-0.215c0.294,0,0.455,0.018,0.521,0.026
			c0.087,0.013,0.166,0.026,0.237,0.04c-0.12,0.905-0.531,2.336-0.801,3.275c-0.265,0.917-0.537,1.865-0.75,2.824
			c-0.918,4.148,0.373,7.666,3.843,10.49c-0.057,16.463-6.168,29.911-18.633,41.048c-1.872,1.669-2.98,3.967-3.121,6.472
			c-0.142,2.505,0.702,4.913,2.366,6.771c1.777,1.997,4.331,3.141,7.006,3.141c2.308,0,4.527-0.848,6.249-2.388
			c10.988-9.816,18.235-20.831,21.966-33.445c0.753,0.939,1.44,1.885,2.011,2.88c0.977,1.705,0.736,3.188-0.146,6.693
			c-0.252,1.009-1.02,4.078,0.913,6.555c1.08,1.383,2.738,2.177,4.544,2.177c4.656,0,9.722-5.693,9.768-5.746
			c0.067-0.078,0.135-0.155,0.201-0.234c4.19,5.717,9.385,10.986,15.52,15.74c1.814,1.404,4.156,2.104,6.399,1.945
			c2.675-0.188,5.139-1.515,6.761-3.612c1.533-1.982,2.211-4.438,1.897-6.922c-0.314-2.489-1.579-4.709-3.564-6.248
			c-10.009-7.752-16.428-16.897-19.503-28.018c2.013-0.095,3.96-0.515,4.771-0.707c3.08-0.734,5.699-2.032,7.677-3.766
			c5.428,6.773,13.19,11.794,23.138,15.076c0.936,0.31,1.912,0.47,2.903,0.47c4.026,0,7.57-2.573,8.815-6.398
			c0.77-2.354,0.576-4.867-0.545-7.076c-1.122-2.21-3.037-3.851-5.39-4.617c-8.546-2.791-14.104-7.079-16.989-13.113
			c-0.631-1.317-1.152-2.752-1.558-4.292c2.277-1.433,3.903-3.574,4.567-6.133c0.938-3.613-0.283-7.423-3.269-10.196
			c-0.568-0.525-1.145-1.001-1.7-1.438c0.429-2.938,1.064-6.089,1.899-9.415c0.633-0.193,1.299-0.392,1.983-0.594
			c3.755-1.113,8.407-2.493,12.31-4.766c-0.338,14.72,1.9,29.369,10.211,40.324c7.174,9.454,17.919,15.146,31.968,16.646
			c0.038,0.004,0.075,0.008,0.112,0.012c0.313,0.029,0.627,0.041,0.94,0.041c4.712,0,8.671-3.535,9.211-8.237
			C237.348,206.6,233.68,202.002,228.602,201.425z M118.863,155.648c-0.151-1.687-0.66-3.463-1.663-5.309
			C120.198,152.507,120.12,153.37,118.863,155.648z M121.799,191.515c0.021-0.663-0.012-1.321-0.095-1.969
			c-0.012-0.089-0.025-0.178-0.037-0.267c0.003,0.004,0.006,0.01,0.008,0.013C122.186,189.891,122.439,190.35,121.799,191.515z"/>
		<path style="fill:#E2E2E2;" d="M186.521,136.477c-0.159,0.993-0.317,1.999-0.471,3.015c-1.551-1.291-3.229-2.415-4.782-3.456
			c-0.421-0.28-0.833-0.558-1.233-0.831c0.924-3.742,1.561-7.346,1.9-10.778c1.986-0.68,3.889-1.4,5.704-2.158
			C187.73,126.545,187.357,131.299,186.521,136.477z M147.386,182.03c-0.392,0.646-1.078,1.314-1.862,2.011
			c-0.008-0.023-0.014-0.044-0.021-0.067c-0.107-0.384-0.249-0.762-0.4-1.144c0.256-1.372,0.539-2.776,0.848-4.22
			c0.766,0.729,1.853,1.785,1.978,2.18C147.928,180.794,147.909,181.171,147.386,182.03z M228.125,200.956
			c-8.922-1.007-15.227-4.089-19.273-9.42c-9.071-11.952-6.913-34.123-4.019-52.102c1.716-10.654,1.837-20.117,0.363-28.183
			c5.422-5.375,8.169-11.521,8.169-18.301c0-13.207-10.926-34.406-26.568-51.553C175.537,29.057,152.164,8.35,122.134,8.35
			c-30.032,0-53.404,20.707-64.664,33.049C41.826,58.545,30.902,79.744,30.902,92.951c0,6.539,2.563,12.497,7.626,17.746
			c-0.857,7.232-0.554,15.475,0.907,24.546c2.894,17.977,5.051,40.146-4.017,52.106c-4.045,5.329-10.351,8.409-19.28,9.418
			c-5.081,0.575-8.747,5.178-8.173,10.268c0.538,4.689,4.497,8.224,9.211,8.224c0.348,0,0.687-0.018,1.048-0.058
			c14.039-1.587,24.794-7.186,31.966-16.641c13.329-17.561,11.041-44.64,7.557-66.268c-0.568-3.527-0.924-6.87-1.063-9.998
			c1.729,0.72,3.538,1.406,5.424,2.059c0.058,6.245,1.207,13.134,3.429,20.554c-0.846,1.697-1.263,3.49-1.242,5.356
			c0.059,5.46,2.558,9.613,7.436,12.373c6.315,19.135,7.289,32.831,2.979,41.83c-2.886,6.032-8.444,10.321-16.988,13.11
			c-2.355,0.769-4.268,2.408-5.388,4.618c-1.121,2.209-1.313,4.722-0.546,7.071c1.248,3.83,4.79,6.402,8.814,6.402
			c0.979,0,1.949-0.156,2.878-0.461c13.433-4.384,22.84-12.033,27.964-22.735c2.269-4.746,3.674-10.133,4.189-16.067
			c1.095-0.054,2.161-0.166,3.132-0.268c1.058-0.11,2.054-0.215,2.797-0.215c0.293,0,0.454,0.018,0.521,0.026
			c0.087,0.013,0.166,0.025,0.237,0.039c-0.121,0.905-0.532,2.337-0.801,3.276c-0.265,0.917-0.537,1.865-0.749,2.824
			c-0.92,4.146,0.372,7.666,3.84,10.49c-0.056,16.463-6.166,29.911-18.631,41.048c-1.872,1.669-2.98,3.967-3.121,6.472
			c-0.142,2.504,0.703,4.913,2.366,6.772c1.777,1.996,4.331,3.141,7.006,3.141c2.308,0,4.527-0.848,6.248-2.388
			c10.987-9.816,18.237-20.831,21.967-33.446c0.754,0.939,1.44,1.886,2.01,2.881c0.978,1.703,0.737,3.187-0.146,6.692
			c-0.251,1.009-1.019,4.079,0.914,6.556c1.08,1.383,2.737,2.177,4.544,2.177c4.655,0,9.722-5.693,9.768-5.746
			c0.067-0.078,0.134-0.155,0.2-0.234c4.19,5.717,9.387,10.986,15.521,15.74c1.813,1.403,4.157,2.104,6.401,1.944
			c2.674-0.188,5.138-1.516,6.759-3.611c1.533-1.982,2.212-4.438,1.898-6.923c-0.314-2.489-1.58-4.708-3.566-6.247
			c-10.009-7.752-16.427-16.897-19.502-28.019c2.012-0.095,3.961-0.515,4.771-0.708c3.08-0.734,5.699-2.031,7.677-3.765
			c5.428,6.773,13.189,11.8,23.137,15.076c0.938,0.309,1.912,0.47,2.904,0.47c4.025,0,7.57-2.573,8.816-6.398
			c0.768-2.354,0.576-4.867-0.545-7.077c-1.121-2.21-3.037-3.85-5.391-4.617c-8.546-2.79-14.104-7.079-16.988-13.112
			c-0.631-1.317-1.152-2.752-1.558-4.293c2.277-1.433,3.903-3.573,4.566-6.133c0.938-3.612-0.282-7.422-3.268-10.195
			c-0.568-0.526-1.145-1.001-1.7-1.438c0.429-2.939,1.063-6.089,1.899-9.416c0.632-0.193,1.299-0.391,1.983-0.594
			c3.754-1.113,8.407-2.492,12.309-4.765c-0.339,14.72,1.899,29.369,10.21,40.324c7.174,9.454,17.938,14.994,31.968,16.645
			c0.039,0.005,0.076,0.009,0.113,0.011c0.313,0.027,0.627,0.043,0.939,0.043c4.713,0,8.672-3.535,9.211-8.237
			C236.87,206.131,233.202,201.532,228.125,200.956z M118.386,155.179c-0.151-1.686-0.659-3.462-1.662-5.309
			C119.722,152.038,119.643,152.9,118.386,155.179z M121.322,191.046c0.02-0.664-0.013-1.322-0.096-1.969
			c-0.012-0.089-0.024-0.178-0.038-0.267c0.005,0.004,0.008,0.009,0.011,0.013C121.666,189.457,121.963,189.88,121.322,191.046z"/>
		<path style="fill:#D3D3D3;" d="M186.045,136.008c-0.16,0.993-0.319,1.999-0.472,3.015c-1.551-1.291-3.229-2.415-4.783-3.456
			c-0.418-0.281-0.831-0.558-1.233-0.831c0.925-3.742,1.562-7.346,1.9-10.778c1.987-0.68,3.89-1.4,5.705-2.158
			C187.253,126.075,186.878,130.829,186.045,136.008z M146.907,181.561c-0.39,0.645-1.077,1.313-1.861,2.011
			c-0.007-0.023-0.014-0.044-0.02-0.067c-0.114-0.383-0.248-0.762-0.399-1.144c0.256-1.372,0.539-2.776,0.847-4.22
			c0.766,0.73,1.852,1.785,1.977,2.18C147.449,180.324,147.432,180.701,146.907,181.561z M227.648,200.486
			c-8.922-1.008-15.227-4.089-19.274-9.42c-9.071-11.953-6.912-34.123-4.018-52.102c1.717-10.654,1.838-20.117,0.362-28.184
			c5.424-5.374,8.169-11.519,8.169-18.3c0-13.207-10.924-34.406-26.567-51.553C175.06,28.587,151.686,7.88,121.656,7.88
			c-30.031,0-53.405,20.707-64.664,33.049C41.35,58.075,30.425,79.274,30.425,92.481c0,6.539,2.563,12.497,7.626,17.746
			c-0.857,7.231-0.554,15.475,0.907,24.546c2.893,17.977,5.051,40.146-4.017,52.105c-4.046,5.33-10.351,8.41-19.28,9.419
			c-5.081,0.575-8.747,5.178-8.172,10.268c0.538,4.689,4.497,8.224,9.21,8.224c0.348,0,0.686-0.018,1.049-0.058
			c14.037-1.587,24.794-7.186,31.965-16.642c13.33-17.56,11.04-44.639,7.556-66.268c-0.567-3.527-0.923-6.87-1.063-9.998
			c1.729,0.72,3.539,1.406,5.425,2.059c0.056,6.245,1.206,13.134,3.428,20.554c-0.847,1.697-1.263,3.49-1.242,5.356
			c0.059,5.46,2.558,9.613,7.436,12.373c6.316,19.135,7.29,32.831,2.979,41.83c-2.886,6.032-8.443,10.321-16.988,13.11
			c-2.353,0.769-4.268,2.408-5.389,4.618c-1.12,2.209-1.313,4.722-0.544,7.071c1.247,3.83,4.789,6.402,8.813,6.402
			c0.979,0,1.949-0.156,2.879-0.461c13.432-4.384,22.84-12.033,27.963-22.735c2.269-4.746,3.673-10.133,4.189-16.067
			c1.095-0.055,2.161-0.166,3.133-0.267c1.057-0.11,2.053-0.215,2.797-0.215c0.293,0,0.453,0.017,0.521,0.026
			c0.087,0.013,0.166,0.025,0.238,0.039c-0.121,0.905-0.533,2.337-0.802,3.276c-0.265,0.917-0.537,1.865-0.749,2.824
			c-0.92,4.146,0.371,7.666,3.841,10.489c-0.056,16.464-6.167,29.912-18.632,41.048c-1.872,1.67-2.98,3.968-3.121,6.473
			c-0.143,2.504,0.703,4.913,2.366,6.772c1.777,1.996,4.33,3.141,7.006,3.141c2.308,0,4.527-0.849,6.249-2.388
			c10.987-9.816,18.236-20.831,21.967-33.447c0.753,0.94,1.439,1.887,2.01,2.882c0.977,1.703,0.737,3.187-0.146,6.692
			c-0.253,1.009-1.02,4.079,0.914,6.556c1.079,1.383,2.736,2.177,4.544,2.177c4.654,0,9.721-5.693,9.767-5.746
			c0.067-0.078,0.135-0.155,0.2-0.234c4.19,5.717,9.387,10.986,15.521,15.74c1.814,1.403,4.156,2.104,6.4,1.944
			c2.674-0.188,5.139-1.515,6.761-3.612c1.531-1.981,2.211-4.436,1.896-6.922c-0.313-2.489-1.579-4.708-3.564-6.247
			c-10.009-7.752-16.427-16.897-19.503-28.018c2.012-0.095,3.961-0.515,4.771-0.708c3.08-0.734,5.699-2.031,7.676-3.765
			c5.429,6.773,13.19,11.799,23.138,15.076c0.936,0.309,1.913,0.47,2.904,0.47c4.026,0,7.57-2.573,8.815-6.397
			c0.77-2.354,0.577-4.867-0.545-7.077c-1.121-2.21-3.037-3.85-5.391-4.617c-8.545-2.79-14.102-7.079-16.988-13.113
			c-0.632-1.316-1.153-2.751-1.558-4.292c2.277-1.433,3.903-3.573,4.568-6.133c0.936-3.612-0.283-7.422-3.271-10.196
			c-0.567-0.525-1.145-1-1.699-1.437c0.428-2.938,1.063-6.089,1.899-9.416c0.633-0.193,1.3-0.391,1.983-0.594
			c3.755-1.113,8.407-2.492,12.31-4.765c-0.339,14.72,1.9,29.369,10.211,40.324c7.174,9.453,17.942,14.95,31.968,16.645
			c0.037,0.005,0.075,0.008,0.112,0.011c0.313,0.027,0.626,0.043,0.94,0.043c4.712,0,8.671-3.535,9.211-8.237
			C236.394,205.661,232.726,201.063,227.648,200.486z M117.909,154.709c-0.15-1.686-0.659-3.462-1.664-5.31
			C119.244,151.568,119.166,152.43,117.909,154.709z M120.845,190.575c0.02-0.664-0.012-1.321-0.095-1.968
			c-0.012-0.089-0.024-0.179-0.038-0.267c0.004,0.004,0.007,0.009,0.01,0.013C121.188,188.987,121.485,189.41,120.845,190.575z"/>
		<path style="fill:#C4C4C4;" d="M185.568,135.538c-0.161,0.994-0.318,2-0.472,3.016c-1.552-1.291-3.23-2.416-4.782-3.457
			c-0.42-0.28-0.833-0.557-1.233-0.83c0.925-3.742,1.559-7.347,1.9-10.778c1.985-0.68,3.89-1.401,5.705-2.159
			C186.775,125.606,186.402,130.358,185.568,135.538z M146.431,181.092c-0.39,0.645-1.077,1.313-1.862,2.011
			c-0.007-0.022-0.013-0.045-0.021-0.067c-0.121-0.38-0.248-0.763-0.397-1.145c0.256-1.371,0.538-2.776,0.845-4.219
			c0.768,0.73,1.854,1.785,1.978,2.18C146.973,179.855,146.954,180.232,146.431,181.092z M227.17,200.017
			c-8.922-1.007-15.226-4.088-19.272-9.419c-9.072-11.953-6.913-34.124-4.019-52.102c1.717-10.654,1.838-20.117,0.364-28.184
			c5.422-5.374,8.167-11.52,8.167-18.3c0-13.207-10.924-34.406-26.568-51.553c-11.26-12.343-34.633-33.049-64.663-33.049
			S67.775,28.117,56.515,40.46C40.873,57.606,29.947,78.806,29.947,92.013c0,6.539,2.563,12.497,7.628,17.746
			c-0.858,7.231-0.556,15.474,0.907,24.546c2.894,17.977,5.049,40.146-4.018,52.105c-4.044,5.33-10.35,8.41-19.28,9.419
			c-5.081,0.575-8.747,5.177-8.171,10.268c0.538,4.688,4.497,8.223,9.209,8.223c0.349,0,0.688-0.017,1.05-0.057
			c14.043-1.548,24.794-7.187,31.965-16.642c13.329-17.561,11.041-44.639,7.557-66.268c-0.568-3.527-0.924-6.871-1.064-9.998
			c1.729,0.72,3.539,1.406,5.426,2.058c0.057,6.246,1.205,13.134,3.43,20.554c-0.848,1.698-1.264,3.491-1.245,5.356
			c0.059,5.46,2.558,9.613,7.435,12.374c6.316,19.135,7.291,32.831,2.98,41.83c-2.886,6.032-8.443,10.32-16.988,13.11
			c-2.354,0.769-4.269,2.408-5.388,4.618c-1.122,2.209-1.313,4.722-0.546,7.071c1.248,3.83,4.789,6.402,8.813,6.402
			c0.979,0,1.949-0.156,2.88-0.461c13.432-4.385,22.84-12.033,27.963-22.735c2.269-4.746,3.674-10.133,4.188-16.067
			c1.095-0.055,2.162-0.166,3.134-0.268c1.056-0.11,2.054-0.215,2.796-0.215c0.294,0,0.453,0.017,0.521,0.026
			c0.088,0.013,0.166,0.025,0.238,0.039c-0.12,0.905-0.531,2.337-0.802,3.276c-0.264,0.917-0.536,1.864-0.749,2.823
			c-0.918,4.146,0.372,7.667,3.841,10.49c-0.055,16.464-6.167,29.912-18.631,41.048c-1.872,1.669-2.979,3.968-3.122,6.472
			c-0.141,2.505,0.703,4.914,2.366,6.772c1.779,1.996,4.331,3.14,7.006,3.14c2.308,0,4.528-0.848,6.25-2.387
			c10.986-9.816,18.235-20.831,21.966-33.447c0.754,0.94,1.439,1.887,2.01,2.882c0.978,1.703,0.737,3.187-0.144,6.692
			c-0.252,1.009-1.021,4.079,0.913,6.556c1.079,1.383,2.735,2.177,4.543,2.177c4.656,0,9.722-5.692,9.768-5.746
			c0.067-0.077,0.135-0.156,0.199-0.235c4.192,5.718,9.388,10.987,15.521,15.74c1.813,1.404,4.156,2.105,6.4,1.945
			c2.674-0.188,5.139-1.515,6.762-3.612c1.532-1.98,2.211-4.437,1.896-6.922c-0.313-2.49-1.578-4.708-3.564-6.248
			c-10.009-7.751-16.427-16.896-19.504-28.018c2.012-0.095,3.962-0.515,4.772-0.708c3.08-0.735,5.699-2.032,7.677-3.766
			c5.427,6.774,13.188,11.803,23.136,15.077c0.938,0.309,1.914,0.47,2.904,0.47c4.028,0,7.57-2.573,8.815-6.397
			c0.771-2.355,0.578-4.867-0.545-7.077c-1.12-2.21-3.036-3.85-5.389-4.617c-8.546-2.791-14.103-7.079-16.99-13.113
			c-0.631-1.316-1.151-2.753-1.558-4.292c2.277-1.433,3.905-3.574,4.568-6.134c0.938-3.611-0.283-7.421-3.269-10.195
			c-0.568-0.525-1.146-1-1.701-1.437c0.43-2.938,1.064-6.089,1.9-9.416c0.633-0.193,1.3-0.393,1.983-0.594
			c3.755-1.113,8.408-2.492,12.309-4.765c-0.337,14.72,1.9,29.369,10.212,40.324c7.175,9.453,17.939,14.973,31.968,16.645
			c0.038,0.004,0.074,0.008,0.112,0.011c0.313,0.025,0.627,0.043,0.939,0.043c4.712,0,8.671-3.535,9.211-8.237
			C235.917,205.191,232.25,200.594,227.17,200.017z M117.432,154.24c-0.149-1.687-0.659-3.462-1.662-5.31
			C118.768,151.1,118.689,151.961,117.432,154.24z M120.368,190.106c0.021-0.664-0.012-1.321-0.095-1.968
			c-0.012-0.09-0.024-0.179-0.038-0.267c0.003,0.004,0.006,0.009,0.01,0.013C120.755,188.483,121.009,188.941,120.368,190.106z"/>
		<path style="fill:#B5B5B5;" d="M185.091,135.068c-0.16,0.995-0.318,2.001-0.472,3.017c-1.551-1.292-3.229-2.416-4.782-3.458
			c-0.418-0.28-0.832-0.557-1.232-0.829c0.924-3.742,1.56-7.348,1.899-10.778c1.987-0.681,3.89-1.401,5.705-2.16
			C186.299,125.138,185.926,129.891,185.091,135.068z M145.955,180.623c-0.392,0.644-1.078,1.313-1.862,2.01
			c-0.008-0.022-0.014-0.044-0.021-0.066c-0.106-0.386-0.248-0.763-0.399-1.145c0.256-1.371,0.538-2.777,0.847-4.219
			c0.766,0.73,1.853,1.784,1.977,2.179C146.496,179.387,146.479,179.763,145.955,180.623z M226.694,199.547
			c-8.923-1.006-15.228-4.088-19.274-9.419c-9.071-11.953-6.911-34.123-4.019-52.102c1.717-10.653,1.838-20.116,0.364-28.183
			c5.422-5.376,8.168-11.519,8.168-18.3c0-13.207-10.925-34.407-26.568-51.555c-11.26-12.341-34.633-33.048-64.663-33.048
			c-30.031,0-53.403,20.707-64.664,33.048C40.396,57.137,29.472,78.337,29.472,91.544c0,6.538,2.562,12.496,7.626,17.746
			c-0.858,7.231-0.554,15.475,0.907,24.545c2.893,17.978,5.05,40.148-4.017,52.105c-4.044,5.329-10.352,8.41-19.28,9.42
			c-5.082,0.574-8.748,5.178-8.173,10.267c0.538,4.688,4.498,8.224,9.21,8.224c0.348,0,0.688-0.017,1.049-0.057
			c14.038-1.588,24.794-7.188,31.967-16.642c13.33-17.561,11.039-44.639,7.555-66.268c-0.568-3.527-0.923-6.87-1.063-9.998
			c1.729,0.721,3.538,1.406,5.424,2.058c0.057,6.246,1.206,13.135,3.43,20.554c-0.848,1.698-1.264,3.492-1.244,5.358
			c0.06,5.46,2.558,9.612,7.437,12.373c6.315,19.135,7.288,32.83,2.978,41.829c-2.885,6.032-8.442,10.321-16.988,13.111
			c-2.354,0.769-4.267,2.407-5.388,4.618c-1.12,2.209-1.314,4.721-0.544,7.07c1.247,3.83,4.788,6.403,8.813,6.403
			c0.978,0,1.949-0.157,2.878-0.461c13.432-4.386,22.84-12.033,27.963-22.735c2.27-4.746,3.674-10.135,4.191-16.068
			c1.093-0.055,2.159-0.166,3.131-0.267c1.058-0.112,2.054-0.216,2.797-0.216c0.293,0,0.453,0.017,0.521,0.026
			c0.088,0.012,0.167,0.026,0.238,0.04c-0.12,0.905-0.531,2.336-0.801,3.275c-0.266,0.917-0.538,1.866-0.75,2.824
			c-0.919,4.147,0.372,7.666,3.841,10.49c-0.056,16.464-6.166,29.911-18.632,41.047c-1.871,1.669-2.979,3.968-3.12,6.472
			c-0.142,2.505,0.702,4.915,2.366,6.774c1.777,1.995,4.33,3.14,7.005,3.14c2.309,0,4.527-0.848,6.249-2.388
			c10.987-9.815,18.236-20.83,21.967-33.446c0.753,0.939,1.439,1.886,2.011,2.882c0.976,1.703,0.737,3.187-0.146,6.691
			c-0.252,1.01-1.021,4.079,0.913,6.555c1.08,1.384,2.736,2.177,4.545,2.177c4.654,0,9.721-5.692,9.766-5.746
			c0.067-0.077,0.135-0.155,0.2-0.232c4.191,5.716,9.387,10.986,15.523,15.739c1.813,1.404,4.154,2.105,6.398,1.944
			c2.674-0.188,5.139-1.514,6.761-3.611c1.532-1.981,2.211-4.436,1.898-6.923c-0.314-2.489-1.579-4.708-3.564-6.248
			c-10.009-7.75-16.428-16.898-19.504-28.018c2.013-0.095,3.961-0.514,4.771-0.707c3.081-0.735,5.7-2.033,7.677-3.767
			c5.428,6.775,13.191,11.797,23.137,15.077c0.938,0.31,1.915,0.47,2.904,0.47c4.027,0,7.571-2.573,8.815-6.397
			c0.77-2.354,0.577-4.867-0.545-7.076c-1.121-2.211-3.036-3.85-5.39-4.617c-8.545-2.791-14.103-7.08-16.989-13.114
			c-0.631-1.316-1.151-2.751-1.558-4.291c2.277-1.435,3.904-3.575,4.569-6.135c0.936-3.61-0.284-7.421-3.27-10.194
			c-0.568-0.526-1.145-1-1.7-1.438c0.43-2.939,1.063-6.089,1.899-9.416c0.633-0.193,1.3-0.391,1.983-0.593
			c3.755-1.114,8.408-2.493,12.31-4.765c-0.338,14.718,1.9,29.368,10.211,40.323c7.175,9.454,17.919,15.146,31.969,16.645
			c0.037,0.004,0.074,0.008,0.111,0.012c0.314,0.03,0.627,0.042,0.941,0.042c4.711,0,8.671-3.534,9.211-8.237
			C235.44,204.723,231.773,200.125,226.694,199.547z M116.955,153.771c-0.15-1.687-0.659-3.463-1.662-5.311
			C118.291,150.63,118.212,151.492,116.955,153.771z M119.891,189.637c0.021-0.663-0.012-1.32-0.095-1.969
			c-0.012-0.089-0.024-0.178-0.038-0.265c0.004,0.004,0.007,0.008,0.01,0.012C120.234,188.049,120.533,188.473,119.891,189.637z"/>
		<path style="fill:#A7A7A7;" d="M184.613,134.599c-0.16,0.995-0.318,2.001-0.472,3.017c-1.55-1.291-3.23-2.416-4.781-3.457
			c-0.42-0.28-0.832-0.558-1.233-0.831c0.924-3.741,1.561-7.347,1.899-10.777c1.987-0.681,3.89-1.402,5.705-2.159
			C185.822,124.668,185.449,129.421,184.613,134.599z M145.479,180.152c-0.393,0.646-1.079,1.314-1.863,2.012
			c-0.008-0.022-0.015-0.045-0.021-0.067c-0.113-0.383-0.248-0.764-0.398-1.145c0.256-1.371,0.538-2.777,0.846-4.219
			c0.767,0.73,1.854,1.784,1.979,2.18C146.02,178.916,146,179.293,145.479,180.152z M226.217,199.077
			c-8.923-1.006-15.227-4.087-19.274-9.42c-9.071-11.952-6.912-34.122-4.019-52.101c1.717-10.653,1.838-20.116,0.364-28.184
			c5.422-5.375,8.169-11.519,8.169-18.299c0-13.207-10.926-34.407-26.569-51.555c-11.26-12.341-34.633-33.047-64.663-33.047
			c-30.031,0-53.403,20.706-64.664,33.047C39.919,56.667,28.995,77.867,28.995,91.074c0,6.539,2.563,12.496,7.625,17.746
			c-0.858,7.231-0.554,15.475,0.907,24.545c2.893,17.977,5.05,40.147-4.017,52.105c-4.045,5.33-10.351,8.41-19.28,9.42
			c-5.082,0.574-8.748,5.178-8.173,10.268c0.538,4.688,4.498,8.223,9.21,8.223c0.348,0,0.688-0.017,1.049-0.057
			c14.039-1.588,24.794-7.187,31.967-16.642c13.329-17.561,11.039-44.639,7.556-66.268c-0.568-3.529-0.924-6.871-1.065-9.999
			c1.729,0.721,3.54,1.406,5.425,2.059c0.058,6.245,1.206,13.134,3.43,20.553c-0.847,1.697-1.264,3.492-1.244,5.358
			c0.059,5.46,2.559,9.612,7.436,12.373c6.316,19.135,7.289,32.83,2.979,41.829c-2.885,6.032-8.441,10.321-16.988,13.11
			c-2.353,0.769-4.267,2.408-5.388,4.618c-1.12,2.21-1.313,4.723-0.545,7.071c1.248,3.83,4.791,6.403,8.814,6.403
			c0.978,0,1.949-0.156,2.879-0.463c13.433-4.383,22.841-12.032,27.963-22.734c2.27-4.745,3.674-10.133,4.19-16.067
			c1.094-0.055,2.16-0.166,3.132-0.267c1.057-0.112,2.054-0.216,2.797-0.216c0.294,0,0.454,0.018,0.521,0.027
			c0.088,0.012,0.166,0.025,0.239,0.038c-0.121,0.906-0.532,2.337-0.803,3.277c-0.264,0.917-0.537,1.865-0.749,2.823
			c-0.919,4.148,0.373,7.666,3.842,10.49c-0.057,16.464-6.166,29.911-18.633,41.048c-1.871,1.668-2.979,3.967-3.121,6.471
			c-0.141,2.505,0.703,4.914,2.366,6.773c1.778,1.994,4.332,3.139,7.006,3.139c2.308,0,4.527-0.847,6.25-2.387
			c10.988-9.815,18.235-20.83,21.966-33.446c0.753,0.939,1.439,1.885,2.01,2.882c0.977,1.703,0.737,3.186-0.145,6.691
			c-0.252,1.01-1.021,4.08,0.913,6.555c1.08,1.384,2.737,2.177,4.544,2.177c4.655,0,9.721-5.691,9.768-5.745
			c0.067-0.078,0.134-0.155,0.2-0.233c4.191,5.717,9.386,10.986,15.521,15.739c1.813,1.404,4.155,2.105,6.399,1.944
			c2.674-0.188,5.138-1.514,6.761-3.611c1.533-1.981,2.211-4.437,1.897-6.923c-0.313-2.489-1.579-4.708-3.564-6.247
			c-10.009-7.751-16.428-16.898-19.504-28.019c2.014-0.095,3.961-0.514,4.771-0.707c3.081-0.735,5.7-2.033,7.677-3.766
			c5.428,6.774,13.189,11.799,23.138,15.077c0.938,0.309,1.913,0.47,2.903,0.47c4.027,0,7.572-2.574,8.815-6.398
			c0.771-2.354,0.577-4.866-0.545-7.077c-1.121-2.21-3.036-3.85-5.39-4.616c-8.544-2.791-14.102-7.08-16.989-13.113
			c-0.63-1.316-1.15-2.752-1.556-4.292c2.275-1.434,3.902-3.575,4.566-6.135c0.936-3.61-0.283-7.421-3.27-10.194
			c-0.568-0.526-1.144-1-1.7-1.438c0.43-2.938,1.064-6.089,1.899-9.416c0.633-0.192,1.3-0.391,1.983-0.593
			c3.755-1.113,8.408-2.493,12.31-4.766c-0.338,14.72,1.901,29.369,10.211,40.323c7.175,9.454,17.939,14.974,31.969,16.645
			c0.037,0.005,0.074,0.008,0.111,0.012c0.313,0.03,0.627,0.043,0.94,0.043c4.712,0,8.672-3.536,9.212-8.239
			C234.963,204.253,231.295,199.655,226.217,199.077z M116.479,153.302c-0.151-1.686-0.66-3.462-1.663-5.311
			C117.814,150.16,117.734,151.022,116.479,153.302z M119.413,189.167c0.021-0.663-0.012-1.32-0.095-1.969
			c-0.012-0.088-0.024-0.178-0.038-0.265c0.004,0.004,0.007,0.008,0.01,0.012C119.724,187.604,120.055,188.002,119.413,189.167z"/>
		<path style="fill:#989898;" d="M184.136,134.13c-0.159,0.994-0.318,2-0.471,3.016c-1.551-1.292-3.229-2.416-4.782-3.457
			c-0.419-0.28-0.832-0.557-1.233-0.831c0.924-3.741,1.561-7.346,1.9-10.777c1.987-0.681,3.889-1.401,5.704-2.159
			C185.345,124.198,184.972,128.951,184.136,134.13z M145.001,179.683c-0.393,0.645-1.078,1.315-1.862,2.012
			c-0.008-0.023-0.015-0.045-0.021-0.067c-0.107-0.385-0.248-0.763-0.399-1.145c0.256-1.372,0.539-2.776,0.847-4.219
			c0.766,0.73,1.854,1.784,1.979,2.18C145.543,178.447,145.523,178.824,145.001,179.683z M225.74,198.608
			c-8.924-1.007-15.229-4.089-19.275-9.42c-9.071-11.952-6.911-34.123-4.019-52.1c1.717-10.654,1.838-20.118,0.364-28.184
			c5.422-5.375,8.169-11.52,8.169-18.3c0-13.207-10.926-34.407-26.568-51.554c-11.26-12.342-34.633-33.048-64.663-33.048
			c-30.031,0-53.404,20.706-64.664,33.048C39.441,56.197,28.518,77.397,28.518,90.604c0,6.538,2.564,12.497,7.625,17.745
			c-0.857,7.231-0.553,15.475,0.908,24.546c2.893,17.978,5.051,40.147-4.017,52.106c-4.045,5.329-10.352,8.41-19.281,9.419
			c-5.081,0.574-8.747,5.178-8.173,10.267c0.538,4.688,4.498,8.224,9.211,8.224c0.347,0,0.686-0.017,1.048-0.057
			c14.039-1.588,24.794-7.188,31.967-16.642c13.33-17.561,11.039-44.639,7.556-66.268c-0.568-3.527-0.923-6.871-1.063-9.999
			c1.73,0.72,3.539,1.408,5.425,2.059c0.057,6.245,1.206,13.134,3.429,20.554c-0.847,1.698-1.264,3.491-1.243,5.356
			c0.059,5.461,2.558,9.613,7.437,12.374c6.316,19.135,7.288,32.831,2.978,41.83c-2.885,6.033-8.441,10.32-16.988,13.11
			c-2.353,0.767-4.266,2.407-5.388,4.617c-1.119,2.209-1.313,4.723-0.544,7.071c1.247,3.83,4.79,6.403,8.813,6.403
			c0.978,0,1.949-0.156,2.878-0.462c13.434-4.384,22.841-12.033,27.963-22.735c2.271-4.745,3.674-10.133,4.191-16.067
			c1.093-0.054,2.16-0.166,3.132-0.267c1.057-0.111,2.054-0.216,2.796-0.216c0.294,0,0.455,0.018,0.522,0.027
			c0.088,0.012,0.166,0.025,0.238,0.038c-0.121,0.906-0.532,2.337-0.802,3.277c-0.265,0.917-0.537,1.865-0.75,2.823
			c-0.919,4.147,0.373,7.666,3.842,10.49c-0.057,16.464-6.166,29.912-18.632,41.048c-1.872,1.669-2.981,3.967-3.121,6.473
			c-0.142,2.504,0.703,4.912,2.366,6.772c1.777,1.995,4.331,3.14,7.007,3.14c2.307,0,4.525-0.848,6.248-2.387
			c10.988-9.816,18.236-20.832,21.967-33.447c0.752,0.939,1.439,1.886,2.01,2.882c0.976,1.703,0.737,3.187-0.146,6.692
			c-0.252,1.009-1.02,4.079,0.913,6.555c1.08,1.383,2.737,2.177,4.545,2.177c4.655,0,9.721-5.693,9.768-5.746
			c0.067-0.077,0.133-0.155,0.199-0.233c4.191,5.717,9.387,10.986,15.523,15.739c1.813,1.404,4.154,2.104,6.399,1.945
			c2.673-0.188,5.138-1.516,6.76-3.612c1.532-1.981,2.212-4.438,1.898-6.923c-0.314-2.489-1.58-4.708-3.565-6.247
			c-10.009-7.752-16.428-16.897-19.503-28.018c2.013-0.095,3.96-0.514,4.771-0.707c3.08-0.735,5.7-2.031,7.676-3.766
			c5.428,6.773,13.191,11.799,23.138,15.077c0.938,0.309,1.914,0.47,2.905,0.47c4.025,0,7.57-2.574,8.814-6.398
			c0.77-2.354,0.576-4.867-0.545-7.077c-1.121-2.21-3.037-3.85-5.391-4.616c-8.544-2.791-14.103-7.078-16.988-13.113
			c-0.631-1.316-1.151-2.752-1.557-4.292c2.277-1.434,3.902-3.573,4.567-6.134c0.936-3.612-0.284-7.422-3.27-10.195
			c-0.568-0.525-1.145-1-1.7-1.437c0.429-2.938,1.064-6.09,1.898-9.416c0.633-0.193,1.3-0.392,1.983-0.595
			c3.756-1.112,8.408-2.492,12.312-4.765c-0.34,14.72,1.899,29.369,10.209,40.325c7.175,9.453,17.939,14.972,31.969,16.643
			c0.038,0.005,0.075,0.009,0.111,0.012c0.314,0.026,0.627,0.042,0.941,0.042c4.712,0,8.672-3.535,9.212-8.236
			C234.485,203.783,230.817,199.186,225.74,198.608z M116.001,152.832c-0.151-1.687-0.659-3.463-1.663-5.31
			C117.337,149.69,117.257,150.553,116.001,152.832z M118.937,188.698c0.021-0.664-0.012-1.321-0.096-1.969
			c-0.011-0.089-0.024-0.178-0.038-0.266c0.004,0.004,0.008,0.008,0.01,0.012C119.221,187.149,119.578,187.533,118.937,188.698z"/>
		<path style="fill:#898989;" d="M183.659,133.661c-0.16,0.993-0.318,2-0.472,3.015c-1.551-1.291-3.229-2.415-4.781-3.456
			c-0.42-0.28-0.833-0.557-1.233-0.831c0.925-3.742,1.56-7.346,1.9-10.777c1.986-0.682,3.889-1.401,5.704-2.159
			C184.867,123.728,184.494,128.481,183.659,133.661z M144.523,179.214c-0.393,0.645-1.078,1.314-1.862,2.012
			c-0.008-0.023-0.015-0.046-0.021-0.068c-0.113-0.382-0.248-0.762-0.398-1.145c0.256-1.372,0.538-2.775,0.846-4.218
			c0.767,0.729,1.855,1.783,1.979,2.179C145.065,177.977,145.046,178.355,144.523,179.214z M225.263,198.14
			c-8.923-1.007-15.227-4.089-19.275-9.42c-9.069-11.952-6.911-34.123-4.017-52.102c1.716-10.653,1.837-20.117,0.363-28.183
			c5.421-5.375,8.168-11.52,8.168-18.302c0-13.205-10.925-34.406-26.567-51.552c-11.261-12.343-34.633-33.048-64.663-33.048
			c-30.032,0-53.404,20.705-64.664,33.048C38.965,55.728,28.04,76.929,28.04,90.134c0,6.54,2.563,12.499,7.626,17.747
			c-0.857,7.231-0.554,15.474,0.908,24.546c2.893,17.977,5.05,40.146-4.018,52.107c-4.045,5.329-10.35,8.409-19.281,9.418
			c-5.081,0.575-8.747,5.178-8.172,10.268c0.538,4.688,4.498,8.223,9.211,8.223c0.348,0,0.687-0.017,1.047-0.056
			c14.045-1.55,24.795-7.188,31.967-16.642c13.33-17.561,11.04-44.64,7.557-66.268c-0.569-3.527-0.924-6.871-1.064-9.999
			c1.73,0.721,3.539,1.408,5.426,2.06c0.057,6.245,1.205,13.133,3.429,20.554c-0.847,1.697-1.264,3.49-1.244,5.355
			c0.06,5.46,2.558,9.614,7.437,12.373c6.316,19.135,7.288,32.833,2.979,41.832c-2.886,6.032-8.443,10.32-16.989,13.109
			c-2.354,0.768-4.267,2.408-5.388,4.617c-1.12,2.209-1.313,4.724-0.545,7.072c1.248,3.829,4.79,6.403,8.813,6.403
			c0.979,0,1.95-0.157,2.879-0.462c13.433-4.384,22.841-12.034,27.964-22.735c2.27-4.746,3.673-10.133,4.189-16.067
			c1.094-0.054,2.16-0.166,3.133-0.268c1.056-0.11,2.054-0.215,2.796-0.215c0.293,0,0.454,0.018,0.521,0.026
			c0.087,0.012,0.165,0.026,0.237,0.039c-0.12,0.906-0.531,2.337-0.802,3.276c-0.265,0.917-0.537,1.864-0.749,2.823
			c-0.919,4.147,0.372,7.667,3.842,10.491c-0.057,16.463-6.167,29.911-18.633,41.048c-1.871,1.669-2.981,3.967-3.121,6.472
			c-0.141,2.505,0.703,4.913,2.367,6.772c1.777,1.996,4.33,3.141,7.006,3.141c2.308,0,4.526-0.848,6.248-2.387
			c10.988-9.817,18.236-20.833,21.967-33.447c0.752,0.939,1.439,1.886,2.01,2.881c0.977,1.704,0.737,3.186-0.145,6.693
			c-0.252,1.009-1.021,4.078,0.913,6.555c1.079,1.383,2.736,2.177,4.544,2.177c4.656,0,9.721-5.693,9.768-5.746
			c0.067-0.078,0.135-0.155,0.199-0.235c4.192,5.718,9.387,10.987,15.522,15.741c1.813,1.403,4.155,2.104,6.4,1.944
			c2.675-0.188,5.139-1.516,6.76-3.611c1.533-1.982,2.212-4.438,1.898-6.923c-0.314-2.49-1.579-4.708-3.565-6.247
			c-10.008-7.752-16.427-16.898-19.502-28.019c2.012-0.095,3.959-0.515,4.771-0.708c3.081-0.735,5.7-2.031,7.677-3.765
			c5.428,6.773,13.188,11.805,23.138,15.076c0.938,0.31,1.913,0.47,2.904,0.47c4.026,0,7.57-2.574,8.815-6.397
			c0.769-2.354,0.577-4.867-0.544-7.078c-1.122-2.209-3.038-3.85-5.391-4.616c-8.545-2.79-14.103-7.078-16.989-13.112
			c-0.631-1.317-1.151-2.753-1.557-4.293c2.277-1.433,3.903-3.573,4.567-6.133c0.936-3.612-0.283-7.422-3.269-10.195
			c-0.568-0.526-1.146-1.001-1.701-1.438c0.43-2.938,1.064-6.089,1.898-9.415c0.634-0.193,1.301-0.393,1.985-0.595
			c3.755-1.112,8.407-2.492,12.309-4.765c-0.339,14.72,1.899,29.368,10.209,40.324c7.176,9.454,17.938,14.994,31.969,16.645
			c0.039,0.005,0.075,0.008,0.112,0.011c0.314,0.023,0.627,0.043,0.941,0.043c4.711,0,8.671-3.535,9.211-8.237
			C234.009,203.313,230.341,198.717,225.263,198.14z M115.523,152.362c-0.151-1.687-0.659-3.462-1.662-5.309
			C116.859,149.222,116.78,150.084,115.523,152.362z M118.459,188.23c0.021-0.664-0.008-1.321-0.095-1.969
			c-0.012-0.089-0.024-0.178-0.037-0.267c0.003,0.003,0.006,0.009,0.008,0.013C118.743,186.68,119.101,187.064,118.459,188.23z"/>
		<path style="fill:#7A7A7A;" d="M183.183,133.191c-0.16,0.993-0.317,1.999-0.473,3.015c-1.55-1.291-3.229-2.415-4.78-3.456
			c-0.421-0.28-0.834-0.558-1.233-0.831c0.924-3.741,1.56-7.346,1.9-10.778c1.986-0.68,3.889-1.4,5.703-2.158
			C184.39,123.259,184.017,128.013,183.183,133.191z M144.046,178.744c-0.392,0.646-1.078,1.314-1.862,2.011
			c-0.008-0.022-0.015-0.044-0.02-0.066c-0.114-0.383-0.249-0.763-0.399-1.145c0.256-1.372,0.538-2.776,0.846-4.22
			c0.768,0.729,1.854,1.785,1.979,2.18C144.588,177.508,144.568,177.885,144.046,178.744z M224.785,197.67
			c-8.922-1.007-15.228-4.089-19.273-9.42c-9.07-11.952-6.913-34.123-4.019-52.102c1.716-10.653,1.837-20.117,0.363-28.183
			c5.422-5.375,8.168-11.521,8.168-18.301c0-13.207-10.925-34.406-26.566-51.553c-11.262-12.342-34.634-33.048-64.664-33.048
			c-30.031,0-53.403,20.706-64.664,33.048C38.487,55.259,27.563,76.458,27.563,89.665c0,6.539,2.563,12.497,7.626,17.746
			c-0.857,7.231-0.554,15.475,0.908,24.546c2.894,17.977,5.05,40.146-4.018,52.106c-4.044,5.329-10.351,8.409-19.28,9.418
			c-5.081,0.575-8.747,5.178-8.173,10.268c0.538,4.689,4.498,8.224,9.211,8.224c0.348,0,0.688-0.018,1.048-0.057
			c14.04-1.588,24.794-7.188,31.966-16.642c13.33-17.561,11.041-44.64,7.558-66.269c-0.568-3.527-0.925-6.87-1.064-9.998
			c1.729,0.72,3.538,1.406,5.425,2.059c0.058,6.245,1.206,13.134,3.429,20.554c-0.846,1.697-1.263,3.49-1.243,5.356
			c0.059,5.46,2.558,9.613,7.436,12.373c6.316,19.135,7.29,32.832,2.979,41.831c-2.885,6.032-8.443,10.32-16.987,13.109
			c-2.355,0.769-4.269,2.408-5.389,4.618c-1.121,2.209-1.313,4.723-0.545,7.071c1.247,3.83,4.789,6.402,8.813,6.402
			c0.979,0,1.951-0.156,2.879-0.461c13.433-4.384,22.841-12.033,27.964-22.735c2.27-4.746,3.674-10.133,4.189-16.067
			c1.095-0.054,2.161-0.166,3.133-0.268c1.056-0.11,2.054-0.215,2.797-0.215c0.293,0,0.453,0.018,0.521,0.026
			c0.086,0.013,0.164,0.026,0.236,0.039c-0.12,0.905-0.531,2.337-0.801,3.276c-0.264,0.917-0.537,1.865-0.749,2.824
			c-0.92,4.148,0.372,7.666,3.841,10.49c-0.057,16.463-6.167,29.911-18.631,41.048c-1.873,1.669-2.98,3.967-3.122,6.472
			c-0.141,2.504,0.702,4.913,2.367,6.772c1.776,1.996,4.329,3.141,7.005,3.141c2.308,0,4.526-0.848,6.249-2.388
			c10.987-9.816,18.235-20.831,21.966-33.446c0.754,0.939,1.44,1.886,2.011,2.881c0.977,1.703,0.736,3.187-0.146,6.692
			c-0.251,1.01-1.021,4.079,0.913,6.556c1.081,1.383,2.737,2.177,4.544,2.177c4.656,0,9.721-5.693,9.768-5.746
			c0.067-0.078,0.135-0.155,0.2-0.234c4.191,5.717,9.386,10.986,15.522,15.74c1.813,1.403,4.156,2.105,6.399,1.944
			c2.676-0.188,5.14-1.515,6.761-3.611c1.533-1.982,2.211-4.437,1.897-6.923c-0.313-2.489-1.579-4.708-3.564-6.247
			c-10.009-7.752-16.428-16.897-19.503-28.019c2.012-0.095,3.961-0.515,4.771-0.708c3.081-0.734,5.699-2.031,7.677-3.765
			c5.429,6.773,13.189,11.802,23.137,15.076c0.938,0.309,1.913,0.47,2.904,0.47c4.026,0,7.57-2.573,8.815-6.397
			c0.77-2.354,0.576-4.867-0.544-7.077c-1.123-2.21-3.037-3.85-5.391-4.617c-8.546-2.79-14.104-7.078-16.989-13.112
			c-0.631-1.317-1.152-2.752-1.558-4.292c2.277-1.434,3.904-3.574,4.567-6.134c0.938-3.612-0.282-7.422-3.268-10.195
			c-0.569-0.526-1.146-1.001-1.701-1.438c0.43-2.938,1.063-6.089,1.899-9.416c0.632-0.192,1.299-0.391,1.983-0.594
			c3.755-1.113,8.407-2.492,12.31-4.765c-0.338,14.72,1.9,29.369,10.21,40.324c7.175,9.454,17.939,14.973,31.969,16.645
			c0.038,0.005,0.075,0.009,0.111,0.012c0.315,0.026,0.629,0.042,0.941,0.042c4.711,0,8.671-3.535,9.211-8.237
			C233.531,202.845,229.863,198.246,224.785,197.67z M115.046,151.893c-0.15-1.686-0.659-3.462-1.661-5.309
			C116.382,148.752,116.304,149.614,115.046,151.893z M117.981,187.76c0.021-0.664-0.011-1.322-0.095-1.969
			c-0.011-0.089-0.024-0.178-0.037-0.267c0.004,0.004,0.006,0.009,0.01,0.013C118.369,186.136,118.623,186.594,117.981,187.76z"/>
		<path style="fill:#6C6C6C;" d="M182.706,132.723c-0.161,0.993-0.319,1.999-0.472,3.015c-1.551-1.291-3.23-2.416-4.782-3.457
			c-0.421-0.28-0.833-0.557-1.234-0.83c0.926-3.743,1.561-7.347,1.901-10.779c1.985-0.679,3.89-1.399,5.704-2.157
			C183.913,122.789,183.54,127.544,182.706,132.723z M143.569,178.274c-0.393,0.646-1.079,1.314-1.862,2.011
			c-0.009-0.022-0.015-0.043-0.021-0.066c-0.115-0.383-0.249-0.762-0.399-1.144c0.255-1.373,0.538-2.776,0.847-4.221
			c0.766,0.729,1.854,1.785,1.977,2.18C144.111,177.039,144.093,177.416,143.569,178.274z M224.308,197.201
			c-8.921-1.008-15.227-4.09-19.273-9.42c-9.07-11.954-6.913-34.123-4.018-52.103c1.716-10.653,1.837-20.116,0.363-28.182
			c5.422-5.375,8.169-11.521,8.169-18.302c0-13.206-10.926-34.406-26.568-51.552c-11.261-12.343-34.634-33.05-64.664-33.05
			c-30.031,0-53.404,20.707-64.663,33.05C38.01,54.789,27.086,75.989,27.086,89.195c0,6.54,2.564,12.498,7.627,17.747
			c-0.858,7.231-0.555,15.475,0.907,24.545c2.893,17.977,5.05,40.147-4.018,52.107c-4.045,5.328-10.35,8.409-19.279,9.418
			c-5.082,0.575-8.747,5.178-8.173,10.268c0.537,4.689,4.497,8.223,9.211,8.223c0.348,0,0.686-0.017,1.048-0.057
			c14.039-1.588,24.794-7.187,31.966-16.642c13.329-17.561,11.041-44.639,7.556-66.268c-0.567-3.528-0.923-6.87-1.063-9.999
			c1.729,0.721,3.539,1.406,5.425,2.06c0.056,6.244,1.205,13.133,3.429,20.553c-0.847,1.697-1.264,3.491-1.244,5.357
			c0.059,5.46,2.559,9.612,7.437,12.373c6.315,19.134,7.289,32.831,2.979,41.829c-2.886,6.032-8.443,10.322-16.988,13.111
			c-2.354,0.768-4.268,2.408-5.389,4.618c-1.12,2.209-1.313,4.722-0.545,7.07c1.248,3.831,4.79,6.403,8.814,6.403
			c0.979,0,1.948-0.156,2.877-0.461c13.434-4.384,22.841-12.033,27.965-22.735c2.27-4.747,3.673-10.134,4.189-16.067
			c1.094-0.055,2.161-0.166,3.133-0.269c1.056-0.11,2.054-0.215,2.796-0.215c0.293,0,0.454,0.018,0.521,0.027
			c0.087,0.013,0.166,0.025,0.237,0.039c-0.121,0.905-0.531,2.337-0.801,3.275c-0.265,0.917-0.537,1.865-0.75,2.824
			c-0.919,4.146,0.373,7.667,3.842,10.491c-0.057,16.463-6.167,29.911-18.632,41.047c-1.872,1.669-2.98,3.968-3.121,6.472
			c-0.142,2.505,0.702,4.914,2.365,6.772c1.778,1.997,4.332,3.142,7.007,3.142c2.308,0,4.526-0.849,6.248-2.388
			c10.988-9.816,18.235-20.832,21.966-33.446c0.754,0.939,1.441,1.886,2.011,2.88c0.978,1.704,0.737,3.188-0.146,6.692
			c-0.252,1.009-1.02,4.08,0.914,6.557c1.08,1.382,2.737,2.176,4.544,2.176c4.656,0,9.722-5.693,9.768-5.745
			c0.068-0.077,0.134-0.156,0.2-0.234c4.191,5.716,9.386,10.986,15.52,15.739c1.813,1.404,4.157,2.105,6.399,1.945
			c2.676-0.188,5.14-1.516,6.761-3.612c1.533-1.983,2.212-4.438,1.898-6.922c-0.314-2.489-1.578-4.708-3.564-6.248
			c-10.008-7.752-16.427-16.896-19.502-28.019c2.012-0.095,3.96-0.514,4.771-0.708c3.08-0.733,5.698-2.031,7.676-3.764
			c5.429,6.772,13.189,11.8,23.138,15.076c0.938,0.309,1.912,0.47,2.903,0.47c4.027,0,7.571-2.573,8.815-6.398
			c0.77-2.355,0.577-4.867-0.544-7.077c-1.122-2.21-3.037-3.851-5.39-4.617c-8.546-2.79-14.104-7.08-16.99-13.114
			c-0.63-1.315-1.151-2.751-1.557-4.292c2.276-1.432,3.903-3.573,4.566-6.132c0.938-3.613-0.282-7.422-3.268-10.196
			c-0.568-0.525-1.146-1.001-1.701-1.438c0.43-2.938,1.064-6.088,1.9-9.415c0.632-0.194,1.298-0.392,1.983-0.594
			c3.754-1.113,8.407-2.492,12.309-4.765c-0.337,14.719,1.901,29.369,10.211,40.323c7.175,9.454,17.918,15.164,31.968,16.645
			c0.039,0.004,0.075,0.008,0.113,0.011c0.313,0.026,0.626,0.043,0.939,0.043c4.712,0,8.671-3.535,9.211-8.238
			C233.055,202.375,229.387,197.777,224.308,197.201z M114.569,151.423c-0.151-1.685-0.66-3.462-1.663-5.309
			C115.905,148.283,115.826,149.145,114.569,151.423z M117.506,187.289c0.021-0.663-0.013-1.32-0.096-1.967
			c-0.012-0.089-0.025-0.18-0.037-0.267c0.004,0.003,0.006,0.008,0.009,0.012C117.934,185.628,118.146,186.125,117.506,187.289z"/>
		<path style="fill:#5D5D5D;" d="M182.229,132.253c-0.16,0.993-0.318,1.999-0.472,3.015c-1.551-1.291-3.229-2.415-4.782-3.457
			c-0.42-0.28-0.833-0.557-1.233-0.83c0.925-3.742,1.561-7.347,1.9-10.778c1.986-0.68,3.89-1.401,5.704-2.159
			C183.436,122.32,183.063,127.074,182.229,132.253z M143.092,177.806c-0.391,0.645-1.078,1.313-1.862,2.011
			c-0.008-0.023-0.014-0.044-0.021-0.067c-0.116-0.382-0.248-0.763-0.399-1.144c0.256-1.372,0.538-2.777,0.847-4.22
			c0.766,0.73,1.854,1.785,1.978,2.18C143.634,176.569,143.615,176.946,143.092,177.806z M223.831,196.73
			c-8.922-1.007-15.228-4.088-19.273-9.419c-9.071-11.953-6.913-34.124-4.019-52.102c1.716-10.654,1.838-20.117,0.363-28.184
			c5.423-5.374,8.169-11.52,8.169-18.3c0-13.207-10.925-34.406-26.568-51.553C171.243,24.832,147.87,4.125,117.84,4.125
			c-30.031,0-53.404,20.707-64.664,33.049C37.533,54.32,26.608,75.52,26.608,88.727c0,6.539,2.563,12.497,7.627,17.746
			c-0.858,7.231-0.555,15.475,0.907,24.546c2.893,17.977,5.05,40.146-4.018,52.105c-4.045,5.33-10.351,8.41-19.28,9.419
			c-5.081,0.575-8.747,5.178-8.172,10.268c0.538,4.688,4.497,8.223,9.21,8.223c0.348,0,0.686-0.017,1.049-0.057
			c14.038-1.587,24.793-7.187,31.965-16.642c13.33-17.561,11.041-44.639,7.557-66.268c-0.568-3.527-0.924-6.87-1.063-9.998
			c1.729,0.72,3.539,1.406,5.425,2.058c0.057,6.246,1.206,13.135,3.429,20.555c-0.847,1.697-1.264,3.49-1.243,5.357
			c0.059,5.46,2.558,9.612,7.436,12.373c6.316,19.135,7.289,32.831,2.979,41.83c-2.886,6.032-8.443,10.32-16.988,13.11
			c-2.354,0.769-4.268,2.408-5.388,4.618c-1.121,2.209-1.313,4.722-0.545,7.071c1.247,3.83,4.789,6.402,8.813,6.402
			c0.979,0,1.949-0.156,2.878-0.461c13.433-4.384,22.841-12.033,27.964-22.735c2.27-4.746,3.674-10.133,4.189-16.067
			c1.095-0.055,2.161-0.166,3.133-0.268c1.057-0.11,2.054-0.215,2.796-0.215c0.294,0,0.454,0.017,0.521,0.026
			c0.087,0.013,0.166,0.025,0.237,0.039c-0.12,0.905-0.531,2.337-0.801,3.276c-0.265,0.917-0.537,1.865-0.749,2.824
			c-0.919,4.146,0.372,7.666,3.841,10.489c-0.056,16.464-6.167,29.912-18.632,41.048c-1.872,1.67-2.98,3.968-3.121,6.472
			c-0.142,2.505,0.703,4.914,2.366,6.773c1.778,1.996,4.331,3.141,7.006,3.141c2.308,0,4.527-0.849,6.249-2.388
			c10.987-9.816,18.236-20.831,21.966-33.447c0.754,0.94,1.44,1.887,2.011,2.882c0.977,1.703,0.736,3.186-0.146,6.692
			c-0.252,1.009-1.02,4.079,0.913,6.556c1.08,1.383,2.737,2.177,4.544,2.177c4.656,0,9.722-5.693,9.768-5.746
			c0.067-0.078,0.135-0.155,0.2-0.234c4.191,5.717,9.387,10.986,15.521,15.74c1.813,1.403,4.156,2.104,6.4,1.944
			c2.674-0.188,5.144-1.511,6.76-3.612c1.538-1.978,2.211-4.437,1.897-6.922c-0.313-2.49-1.579-4.708-3.564-6.248
			c-10.009-7.751-16.427-16.896-19.503-28.018c2.012-0.095,3.96-0.515,4.771-0.708c3.08-0.735,5.699-2.031,7.677-3.766
			c5.428,6.774,13.179,11.831,23.137,15.077c0.936,0.311,1.913,0.47,2.904,0.47c4.026,0,7.57-2.573,8.815-6.397
			c0.77-2.354,0.577-4.867-0.545-7.077c-1.121-2.21-3.037-3.85-5.39-4.617c-8.546-2.791-14.104-7.079-16.989-13.113
			c-0.631-1.316-1.152-2.752-1.558-4.292c2.277-1.433,3.903-3.574,4.567-6.133c0.938-3.612-0.283-7.422-3.269-10.196
			c-0.568-0.525-1.145-1-1.7-1.437c0.429-2.938,1.064-6.089,1.899-9.416c0.633-0.193,1.3-0.391,1.983-0.594
			c3.755-1.113,8.408-2.492,12.31-4.765c-0.338,14.72,1.9,29.369,10.211,40.324c7.174,9.453,17.93,15.054,31.968,16.645
			c0.038,0.004,0.075,0.008,0.112,0.011c0.314,0.028,0.627,0.043,0.94,0.043c4.712,0,8.671-3.535,9.211-8.237
			C232.577,201.906,228.909,197.308,223.831,196.73z M114.093,150.954c-0.151-1.686-0.66-3.462-1.663-5.31
			C115.428,147.813,115.35,148.675,114.093,150.954z M117.028,186.82c0.021-0.664-0.012-1.321-0.095-1.968
			c-0.012-0.09-0.025-0.179-0.038-0.267c0.004,0.004,0.007,0.009,0.01,0.013C117.366,185.236,117.669,185.655,117.028,186.82z"/>
	</g>
	<path style="fill:#FFFFFF;" d="M223.831,196.73c-8.922-1.007-15.228-4.088-19.273-9.419c-9.071-11.953-6.913-34.124-4.019-52.102
		c1.716-10.654,1.838-20.117,0.363-28.184c5.423-5.374,8.169-11.52,8.169-18.3c0-13.207-10.925-34.406-26.568-51.553
		C171.243,24.832,147.87,4.125,117.84,4.125c-30.031,0-53.404,20.707-64.664,33.049C37.533,54.32,26.608,75.52,26.608,88.727
		c0,6.539,2.563,12.497,7.627,17.746c-0.858,7.231-0.555,15.475,0.907,24.546c2.893,17.977,5.05,40.146-4.018,52.105
		c-4.045,5.33-10.351,8.41-19.28,9.419c-5.081,0.575-8.747,5.178-8.172,10.268c0.538,4.688,4.497,8.223,9.21,8.223
		c0.348,0,0.686-0.017,1.049-0.057c14.038-1.587,24.793-7.187,31.965-16.642c13.33-17.561,11.041-44.639,7.557-66.268
		c-0.568-3.527-0.924-6.87-1.063-9.998c1.729,0.72,3.539,1.406,5.425,2.058c0.057,6.246,1.206,13.135,3.429,20.555
		c-0.847,1.697-1.264,3.49-1.243,5.357c0.059,5.46,2.558,9.612,7.436,12.373c6.316,19.135,7.289,32.831,2.979,41.83
		c-2.886,6.032-8.443,10.32-16.988,13.11c-2.354,0.769-4.268,2.408-5.388,4.618c-1.121,2.209-1.313,4.722-0.545,7.071
		c1.247,3.83,4.789,6.402,8.813,6.402c0.979,0,1.949-0.156,2.878-0.461c13.433-4.384,22.841-12.033,27.964-22.735
		c2.27-4.746,3.674-10.133,4.189-16.067c1.095-0.055,2.161-0.166,3.133-0.268c1.057-0.11,2.054-0.215,2.796-0.215
		c0.294,0,0.454,0.017,0.521,0.026c0.087,0.013,0.166,0.025,0.237,0.039c-0.12,0.905-0.531,2.337-0.801,3.276
		c-0.265,0.917-0.537,1.865-0.749,2.824c-0.919,4.146,0.372,7.666,3.841,10.489c-0.056,16.464-6.167,29.912-18.632,41.048
		c-1.872,1.67-2.98,3.968-3.121,6.472c-0.142,2.505,0.703,4.914,2.366,6.773c1.778,1.996,4.331,3.141,7.006,3.141
		c2.308,0,4.527-0.849,6.249-2.388c10.987-9.816,18.236-20.831,21.966-33.447c0.754,0.94,1.44,1.887,2.011,2.882
		c0.977,1.703,0.736,3.186-0.146,6.692c-0.252,1.009-1.02,4.079,0.913,6.556c1.08,1.383,2.737,2.177,4.544,2.177
		c4.656,0,9.722-5.693,9.768-5.746c0.067-0.078,0.135-0.155,0.2-0.234c4.191,5.717,9.387,10.986,15.521,15.74
		c1.813,1.403,4.156,2.104,6.4,1.944c2.674-0.188,5.144-1.511,6.76-3.612c1.538-1.978,2.211-4.437,1.897-6.922
		c-0.313-2.49-1.579-4.708-3.564-6.248c-10.009-7.751-16.427-16.896-19.503-28.018c2.012-0.095,3.96-0.515,4.771-0.708
		c3.08-0.735,5.699-2.031,7.677-3.766c5.428,6.774,13.179,11.831,23.137,15.077c0.936,0.311,1.913,0.47,2.904,0.47
		c4.026,0,7.57-2.573,8.815-6.397c0.77-2.354,0.577-4.867-0.545-7.077c-1.121-2.21-3.037-3.85-5.39-4.617
		c-8.546-2.791-14.104-7.079-16.989-13.113c-0.631-1.316-1.152-2.752-1.558-4.292c2.277-1.433,3.903-3.574,4.567-6.133
		c0.938-3.612-0.283-7.422-3.269-10.196c-0.568-0.525-1.145-1-1.7-1.437c0.429-2.938,1.064-6.089,1.899-9.416
		c0.633-0.193,1.3-0.391,1.983-0.594c3.755-1.113,8.408-2.492,12.31-4.765c-0.338,14.72,1.9,29.369,10.211,40.324
		c7.174,9.453,17.93,15.054,31.968,16.645c0.038,0.004,0.075,0.008,0.112,0.011c0.314,0.028,0.627,0.043,0.94,0.043
		c4.712,0,8.671-3.535,9.211-8.237C232.577,201.906,228.909,197.308,223.831,196.73z M114.093,150.954
		c-0.151-1.686-0.66-3.462-1.663-5.31C115.428,147.813,115.35,148.675,114.093,150.954z M117.028,186.82
		c0.021-0.664-0.012-1.321-0.095-1.968c-0.012-0.09-0.025-0.179-0.038-0.267c0.004,0.004,0.007,0.009,0.01,0.013
		C117.366,185.236,117.669,185.655,117.028,186.82z M143.092,177.806c-0.391,0.645-1.078,1.313-1.862,2.011
		c-0.008-0.023-0.014-0.044-0.021-0.067c-0.116-0.382-0.248-0.763-0.399-1.144c0.256-1.372,0.538-2.777,0.847-4.22
		c0.766,0.73,1.854,1.785,1.978,2.18C143.634,176.569,143.615,176.946,143.092,177.806z M182.229,132.253
		c-0.16,0.993-0.318,1.999-0.472,3.015c-1.551-1.291-3.229-2.415-4.782-3.457c-0.42-0.28-0.833-0.557-1.233-0.83
		c0.925-3.742,1.561-7.347,1.9-10.778c1.986-0.68,3.89-1.401,5.704-2.159C183.436,122.32,183.063,127.074,182.229,132.253z"/>
	<g>
		<g>
			<path style="fill:#76C4FF;" d="M170.983,117.229c1.982-1.317,4.894-1.963,6.703-3.414c3.444-2.758,6.394-5.603,6.954-9.969
				c0.398-3.077-3.014-5.918-5.083-7.794c-4.14-3.755-9.602-5.756-13.962-9.207c-7.354-5.821,2.022-11.459,6.225-14.342
				c3.246-2.227,6.175-4.479,7.798-7.993c1.315-2.842,1.292-7.535-0.526-10.236c-0.214-0.316-0.451-0.61-0.68-0.916
				c0.03-0.069,0.057-0.141,0.057-0.205c0.011-2.457-1.569-5.585-3.081-7.486c-3.356-4.221-6.695-7.265-11.363-9.857
				c-4.579-2.547-10.88-2.906-16.005-3.578c-6.393-0.826-12.764-1.872-19.218-2.146c-11.339-0.488-23.004-0.092-33.783,3.67
				c-5.301,1.846-9.771,5.053-14.346,8.241c-1.978,1.379-3.48,3.098-4.835,4.932c-0.794,0.572-1.59,1.095-2.101,1.561
				c-2.009,1.808-3.809,3.587-5.29,5.786c-1.813,2.701-1.845,7.395-0.526,10.236c1.623,3.514,4.549,5.767,7.794,7.993
				c4.21,2.883,13.582,8.521,6.229,14.342c-4.365,3.451-9.819,5.452-13.967,9.207c-2.068,1.876-5.477,4.717-5.079,7.794
				c0.557,4.366,3.507,7.211,6.951,9.969c1.813,1.451,4.725,2.097,6.706,3.414c3.892,2.598,6.118,6.592,4.53,11.045
				c-2.446,6.867-16.323,9.647-16.236,17.714c0.139,12.953,19.741,9.43,26.455,16.254c2.658,2.703,2.944,6.669,0.872,9.884
				c-1.654,2.552-4.248,3.834-6.417,5.843c-2.09,1.941-2.963,3.659-1.798,6.287c2.348,5.312,10.406,2.073,14.523,2.669
				c7.087,1.028,3.777,7.238,2.727,11.988c-0.971,4.373,2.616,6.217,5.793,7.905c0.532,0.287,1.239-0.365,1.387-0.824
				c0.375-1.173-0.022-1.939-0.484-3.063c-2.579-6.29,5.037-11.144,4.217-17.449c-0.439-3.372-2.632-4.792-5.164-6.664
				c-3.952-2.922-10.079-6.921-6.411-12.29c4.36-6.371,12.945-12.076,6.323-20.517c-2.864-3.636-7.951-4.419-11.202-7.447
				c-3.632-3.392-1.057-8.089,1.921-11.011c5.478-5.362,6.925-6.695,6.913-11.614c0-1.691-5.847-12.022-8.016-12.442
				c3.948,0.764,14.418,9.369,13.997,13.81c-0.405,4.263-4.117,7.043-5.21,11.015c-3.448,12.508,20.804,11.29,12.816,25.421
				c-2.344,4.144-7.279,10.12-7.47,15.039c-0.271,6.867,6.791,8.257,10.213,12.978c2.395,3.311,1.512,6.218-0.826,9.311
				c-3.813,5.041-7.726,9.418-8.813,15.854c-1.004,5.93,1.275,11.048,4.941,15.505c2.177,2.646,4.515,4.992,6.232,7.993
				c2.007,3.499,1.261,6.672,0.353,10.281c-1.514,6.053,5.415,0.294,6.858-1.372c4.255-4.898,3.567-10.489,0.417-15.749
				c-2.646-4.403-8.346-8.269-8.842-13.653c-0.61-6.672,7.139-10.899,11.16-15.001c3.738-3.813,5.866-8.483,4.254-13.764
				c-1.55-5.081-6.813-8.579-7.538-13.88c-0.842-6.042,6.033-8.815,7.853-13.936c2.558-7.214-0.066-15.249-4.996-20.817
				c-12.778-14.405,3.96-28.36,11.335-32.023c-4.98,12.317-14.689,23.56,1.395,36.751c4.598,3.771,4.075,9.953,0.744,14.99
				c-3.201,4.843-7.8,9.369-3.491,15.292c3.177,4.365,9.229,6.439,5.367,12.786c-1.961,3.227-5.955,4.932-7.597,8.342
				c-2.444,5.091,3.59,8.226,3.421,13.148c-0.099,2.853-4.384,3.457-5.452,5.454c-2.346,4.365,5.087,2.921,6.988,2.468
				c4.75-1.134,9.452-4.408,7.565-10.164c-0.576-1.768-6.351-7.771-4.015-9.856c2.777-2.467,7.478-1.328,10.813-2.154
				c4.808-1.181,6.57-6.11,2.818-9.594c-2.169-2.009-4.763-3.291-6.413-5.843c-3.481-5.385,0.15-10.182,5.578-12.237
				c6.981-2.643,21.65-4.696,21.745-13.9c0.083-8.066-13.794-10.847-16.236-17.714C164.866,123.82,167.092,119.826,170.983,117.229z
				 M73.371,50.447c-0.676,0.985-1.375,1.955-2.123,2.902c0.252-0.481,0.526-0.97,0.854-1.455
				C72.416,51.433,72.858,50.947,73.371,50.447z"/>
			<path style="fill:#A6D9FF;" d="M12.883,206.184c-2.223,0-4.132-1.664-4.392-3.927c-0.274-2.429,1.474-4.62,3.899-4.896
				c10.316-1.165,17.71-4.864,22.598-11.304c10.181-13.429,7.989-36.878,4.942-55.81C34.148,94.367,49,84.873,50.715,83.903
				l4.342,7.714l0.097-0.058c-0.115,0.073-11.281,7.524-6.488,37.279c3.33,20.677,5.591,46.463-6.631,62.564
				c-6.34,8.357-15.978,13.321-28.647,14.754C13.216,206.176,13.052,206.184,12.883,206.184z"/>
			<path style="fill:#B8E4FF;" d="M56.308,226.594c-1.864,0-3.595-1.189-4.202-3.056c-0.76-2.322,0.508-4.819,2.826-5.576
				c9.876-3.224,16.369-8.333,19.858-15.627c7.281-15.204,0.405-37.733-6.396-55.661c-12.891-33.979-0.248-46.276,1.233-47.563
				l5.805,6.676l0.085-0.077c-0.097,0.096-9.541,9.644,1.152,37.824c7.425,19.578,14.826,44.387,6.104,62.619
				c-4.529,9.464-12.97,16.262-25.093,20.219C57.229,226.52,56.766,226.594,56.308,226.594z"/>
			<path style="fill:#A6D9FF;" d="M87.937,260.935c-1.248,0-2.489-0.512-3.384-1.516c-1.669-1.864-1.508-4.732,0.36-6.397
				c28.23-25.222,21.982-57.359,11.021-88.329c-12.679-35.851,3.92-59.708,4.63-60.708c1.451-2.04,4.283-2.514,6.324-1.055
				c2.03,1.451,2.504,4.273,1.06,6.309c-0.609,0.879-14.497,21.234-3.459,52.43c7.5,21.211,10.486,37.019,9.684,51.26
				c-1.038,18.496-8.639,33.825-23.22,46.852C90.091,260.553,89.007,260.935,87.937,260.935z"/>
			<path style="fill:#B8E4FF;" d="M222.799,210.37c2.222,0,4.132-1.666,4.392-3.926c0.271-2.425-1.475-4.618-3.903-4.894
				c-10.315-1.164-17.706-4.869-22.594-11.308c-10.191-13.429-7.989-36.878-4.943-55.806c5.782-35.881-9.074-45.379-10.785-46.345
				l-4.342,7.711l-0.095-0.053c0.113,0.067,11.281,7.522,6.488,37.273c-3.334,20.677-5.587,46.468,6.625,62.565
				c6.341,8.355,15.98,13.321,28.651,14.757C222.462,210.362,222.63,210.37,222.799,210.37z"/>
			<path style="fill:#A6D9FF;" d="M179.442,221.385c1.864,0,3.598-1.188,4.206-3.057c0.76-2.321-0.512-4.819-2.831-5.575
				c-9.872-3.224-16.368-8.334-19.858-15.628c-7.276-15.2-0.405-37.73,6.396-55.659c12.891-33.976,0.248-46.274-1.233-47.565
				l-5.805,6.677l-0.08-0.073c0.095,0.092,9.535,9.644-1.153,37.825c-7.425,19.576-14.831,44.385-6.104,62.614
				c4.526,9.463,12.966,16.266,25.089,20.219C178.527,221.315,178.989,221.385,179.442,221.385z"/>
			<path style="fill:#B8E4FF;" d="M155.023,255.122c1.245-0.087,2.448-0.68,3.271-1.748c1.534-1.976,1.175-4.824-0.808-6.36
				c-29.926-23.178-25.943-55.675-17.178-87.34c10.144-36.647-8.078-59.287-8.86-60.234c-1.594-1.933-4.45-2.204-6.383-0.611
				c-1.929,1.593-2.203,4.441-0.621,6.37c0.676,0.833,15.952,20.17,7.125,52.059c-5.998,21.682-7.877,37.665-6.075,51.814
				c2.33,18.378,10.98,33.134,26.439,45.111C152.851,254.893,153.953,255.198,155.023,255.122z"/>
		</g>
		<path style="fill:#8DC9FF;" d="M204.221,88.727c0,22.415-38.675,34.914-86.381,34.914c-47.708,0-86.381-12.499-86.381-34.914
			c0-22.423,38.673-79.751,86.381-79.751C165.546,8.976,204.221,66.304,204.221,88.727z"/>
		<g>
			<g>
				<path style="fill:#2A333F;" d="M88.456,53.617c0,3.766-3.059,6.821-6.824,6.821c-3.771,0-6.82-3.056-6.82-6.821
					c0-3.766,3.05-6.825,6.82-6.825C85.397,46.792,88.456,49.852,88.456,53.617z"/>
				<path style="fill:#FFFFFF;" d="M81.146,51.49c0,1.177-0.955,2.127-2.131,2.127c-1.177,0-2.124-0.95-2.124-2.127
					c0-1.173,0.947-2.127,2.124-2.127C80.191,49.363,81.146,50.317,81.146,51.49z"/>
				<path style="fill:#FFFFFF;" d="M78.752,55.962c0,0.516-0.417,0.932-0.929,0.932c-0.515,0-0.932-0.416-0.932-0.932
					c0-0.512,0.417-0.932,0.932-0.932C78.335,55.03,78.752,55.45,78.752,55.962z"/>
			</g>
			<g>
				<path style="fill:#2A333F;" d="M160.87,53.617c0,3.766-3.054,6.821-6.82,6.821s-6.82-3.056-6.82-6.821
					c0-3.766,3.054-6.825,6.82-6.825S160.87,49.852,160.87,53.617z"/>
				<path style="fill:#FFFFFF;" d="M153.565,51.49c0,1.177-0.951,2.127-2.128,2.127c-1.173,0-2.128-0.95-2.128-2.127
					c0-1.173,0.955-2.127,2.128-2.127C152.614,49.363,153.565,50.317,153.565,51.49z"/>
				<path style="fill:#FFFFFF;" d="M151.17,55.962c0,0.516-0.416,0.932-0.928,0.932c-0.516,0-0.933-0.416-0.933-0.932
					c0-0.512,0.417-0.932,0.933-0.932C150.754,55.03,151.17,55.45,151.17,55.962z"/>
			</g>
		</g>
	</g>
</g>
</svg>
